# xmcd
#
# Track frame offsets:
#	150
#	22417
#	43110
#	66967
#	89612
#	110580
#	130692
#	151762
#	173122
#	193312
#	214802
#	239280
#	262062
#	279237
#
# Disc length: 3975 seconds
#
# Revision: 0
# Processed by: cddbd v1.5.2PL0 Copyright (c) Steve Scherf et al.
# Submitted via: EZCDAudioConverter 8.0.2.1
#
DISCID=d20f850e
DTITLE=信.乐团 - 挑信 新歌＋精选 金选28首 Disc One
DYEAR=2004
DGENRE=
TTITLE0=从今以后
TTITLE1=挑战
TTITLE2=带刺的蝴蝶
TTITLE3=天高地厚
TTITLE4=One Night In 北京
TTITLE5=离歌
TTITLE6=世界末日
TTITLE7=天亮以后说分手
TTITLE8=死了都要爱
TTITLE9=不会消失的夜晚
TTITLE10=移民火星
TTITLE11=想你的夜
TTITLE12=One Night In 台北
TTITLE13=活该
EXTD=
EXTT0=
EXTT1=
EXTT2=
EXTT3=
EXTT4=
EXTT5=
EXTT6=
EXTT7=
EXTT8=
EXTT9=
EXTT10=
EXTT11=
EXTT12=
EXTT13=
PLAYORDER=
